<?xml version="1.0" encoding="UTF-8"?>
<svg version="1.1" xmlns="http://www.w3.org/2000/svg" width="500" height="200">
<path d="M0 0 C0.5625 1.9375 0.5625 1.9375 1 4 C1.66 4.99 2.32 5.98 3 7 C3.144375 7.969375 3.28875 8.93875 3.4375 9.9375 C3.75692385 13.00709009 3.75692385 13.00709009 5.5625 15 C7.51397357 17.71509367 7.22234212 19.73898222 7 23 C7.99 23.33 8.98 23.66 10 24 C11 27 11 27 11 30 C11.33 30.33 11.66 30.66 12 31 C12.33 31.99 12.66 32.98 13 34 C13.33 34.66 13.66 35.32 14 36 C13.505 36.99 13.505 36.99 13 38 C13.66 38 14.32 38 15 38 C15.495 40.97 15.495 40.97 16 44 C16.99 44 17.98 44 19 44 C18.67 46.31 18.34 48.62 18 51 C18.99 51.495 18.99 51.495 20 52 C19.505 52.99 19.505 52.99 19 54 C14.4990948 54.17650609 10.98970779 54.21650433 7 52 C3.33361791 48.59550234 3.39628285 44.7553942 3 40 C2.01 40.33 1.02 40.66 0 41 C-1.48354153 41.01546261 -2.96829574 40.96835798 -4.44921875 40.87890625 C-5.29677734 40.83056641 -6.14433594 40.78222656 -7.01757812 40.73242188 C-7.89865234 40.67634766 -8.77972656 40.62027344 -9.6875 40.5625 C-11.02651367 40.48418945 -11.02651367 40.48418945 -12.39257812 40.40429688 C-14.5954156 40.2747182 -16.79778873 40.13975754 -19 40 C-18.9896875 40.76699219 -18.979375 41.53398438 -18.96875 42.32421875 C-19.00013556 45.01160766 -19.40254076 47.38611582 -20 50 C-20.66 50 -21.32 50 -22 50 C-21.34 50.66 -20.68 51.32 -20 52 C-20.99 52.495 -20.99 52.495 -22 53 C-22.33 53.66 -22.66 54.32 -23 55 C-23.33 54.67 -23.66 54.34 -24 54 C-25.093125 54.020625 -26.18625 54.04125 -27.3125 54.0625 C-30.71603882 54.0048129 -32.21094566 53.78499478 -35 52 C-34.67 51.01 -34.34 50.02 -34 49 C-34.99 48.67 -35.98 48.34 -37 48 C-34.525 47.505 -34.525 47.505 -32 47 C-32.33 45.68 -32.66 44.36 -33 43 C-32.01 42.505 -32.01 42.505 -31 42 C-30.59270772 39.67843403 -30.25561323 37.3431213 -30 35 C-29.34 35 -28.68 35 -28 35 C-27.896875 33.9275 -27.79375 32.855 -27.6875 31.75 C-26.99834486 27.99097198 -26.28892369 26.86115461 -24 24 C-23.62690101 22.34178227 -23.29299023 20.67422986 -23 19 C-21.98164793 16.82045009 -20.8484028 14.71747794 -19.7109375 12.59765625 C-19.27007812 11.76105469 -18.82921875 10.92445312 -18.375 10.0625 C-17.92898438 9.22847656 -17.48296875 8.39445312 -17.0234375 7.53515625 C-15.92471153 4.81350298 -15.88900157 2.90109533 -16 0 C-14.20571541 -1.79428459 -11.55790044 -1.4628797 -9.125 -1.6875 C-8.05507813 -1.79449219 -6.98515625 -1.90148437 -5.8828125 -2.01171875 C-3 -2 -3 -2 0 0 Z M-8 15 C-7.67 15.66 -7.34 16.32 -7 17 C-6.67 16.34 -6.34 15.68 -6 15 C-6.66 15 -7.32 15 -8 15 Z M-10 16 C-12.55058676 21.88422042 -12.55058676 21.88422042 -12.1875 28.0625 C-11.795625 28.701875 -11.40375 29.34125 -11 30 C-8.03 30 -5.06 30 -2 30 C-2.33 29.01 -2.66 28.02 -3 27 C-2.67 26.34 -2.34 25.68 -2 25 C-3.07918104 22.42656829 -4.44402274 20.33396589 -6 18 C-6.99 18.33 -7.98 18.66 -9 19 C-9.33 18.01 -9.66 17.02 -10 16 Z M-14 26 C-14.33 27.32 -14.66 28.64 -15 30 C-14.34 30 -13.68 30 -13 30 C-13.33 28.68 -13.66 27.36 -14 26 Z " fill="#070707" transform="translate(331,80)"/>
<path d="M0 0 C0.66 0.33 1.32 0.66 2 1 C2.309375 1.639375 2.61875 2.27875 2.9375 2.9375 C3.95345922 5.31971493 3.95345922 5.31971493 7 7 C7.66015625 9.12890625 7.66015625 9.12890625 8.0625 11.5625 C8.42427653 13.94433029 8.42427653 13.94433029 9 16 C9.66 16.33 10.32 16.66 11 17 C11.625 19.0625 11.625 19.0625 12 21 C11.01 21.33 10.02 21.66 9 22 C9.26425781 22.54140625 9.52851563 23.0828125 9.80078125 23.640625 C10 26 10 26 7.98046875 28.796875 C7.0624101 29.79332071 6.1307631 30.77737959 5.1875 31.75 C4.72279297 32.25660156 4.25808594 32.76320312 3.77929688 33.28515625 C2.56987901 34.57265705 1.28901653 35.79219776 0 37 C-0.66 37 -1.32 37 -2 37 C-2.33 37.99 -2.66 38.98 -3 40 C-18.56528538 41.82955434 -18.56528538 41.82955434 -23.02734375 38.4765625 C-24.42295655 37.24468081 -25.7946744 35.98517543 -27.140625 34.69921875 C-29.03372131 32.83256431 -29.03372131 32.83256431 -31.875 31.4375 C-34.84661379 29.42729067 -35.2153824 27.42378589 -36 24 C-36 23.01 -36 22.02 -36 21 C-35.34 20.67 -34.68 20.34 -34 20 C-34.66 19.01 -35.32 18.02 -36 17 C-35.625 13.3125 -35.625 13.3125 -35 10 C-34.01 9.67 -33.02 9.34 -32 9 C-31.67 8.34 -31.34 7.68 -31 7 C-30 5 -30 5 -27 4 C-26.67 3.34 -26.34 2.68 -26 2 C-18.07633373 -2.00569107 -8.12983663 -4.67070528 0 0 Z M-19 9 C-19.71247732 10.6476038 -20.37400383 12.31763529 -21 14 C-21.99387334 15.33790641 -22.9926892 16.67218122 -24 18 C-24 18.66 -24 19.32 -24 20 C-23.01 20.495 -23.01 20.495 -22 21 C-21.9175 21.928125 -21.835 22.85625 -21.75 23.8125 C-21.25747629 27.18547346 -21.25747629 27.18547346 -18.5 29.4375 C-14.00459372 31.4443778 -10.67431826 31.54925321 -6 30 C-3.28252599 27.81627845 -3.28252599 27.81627845 -2 25 C-2.33 24.01 -2.66 23.02 -3 22 C-2.95387908 19.45077114 -2.80733667 16.91930799 -2.64453125 14.375 C-2.77166732 11.84666596 -2.77166732 11.84666596 -4.890625 10.23046875 C-9.48050258 7.55304016 -13.97910272 7.32636757 -19 9 Z M-34 13 C-34.33 14.32 -34.66 15.64 -35 17 C-34.34 15.68 -33.68 14.36 -33 13 C-33.33 13 -33.66 13 -34 13 Z M-3 14 C-2 16 -2 16 -2 16 Z M-2 16 C-2 17.98 -2 19.96 -2 22 C-1.67 22 -1.34 22 -1 22 C-1 20.02 -1 18.04 -1 16 C-1.33 16 -1.66 16 -2 16 Z M9 19 C10 21 10 21 10 21 Z M-23 21 C-22 24 -22 24 -22 24 Z M-34 24 C-33 26 -33 26 -33 26 Z " fill="#080808" transform="translate(241,94)"/>
<path d="M0 0 C3 2 3 2 5 5 C5.66 5 6.32 5 7 5 C7.04898438 5.71027344 7.09796875 6.42054687 7.1484375 7.15234375 C7.22320312 8.07144531 7.29796875 8.99054688 7.375 9.9375 C7.44460937 10.85402344 7.51421875 11.77054688 7.5859375 12.71484375 C7.72257812 13.46894531 7.85921875 14.22304687 8 15 C8.66 15.33 9.32 15.66 10 16 C10 16.66 10 17.32 10 18 C10.66 18 11.32 18 12 18 C11.814375 18.763125 11.62875 19.52625 11.4375 20.3125 C10.77180827 23.08967375 10.77180827 23.08967375 12 26 C12.66 26.33 13.32 26.66 14 27 C14.66 22.38 15.32 17.76 16 13 C16.99 13.33 17.98 13.66 19 14 C19.33 11.36 19.66 8.72 20 6 C20.66 6 21.32 6 22 6 C21.34 4.68 20.68 3.36 20 2 C21.32 1.34 22.64 0.68 24 0 C24 0.66 24 1.32 24 2 C25.98 1.34 27.96 0.68 30 0 C30 0.66 30 1.32 30 2 C31.32 2.33 32.64 2.66 34 3 C32.13521644 8.12815479 30.10126066 13.0853473 27.76953125 18.01953125 C26.81890996 20.11193408 26.81890996 20.11193408 27 23 C26.34 23.99 25.68 24.98 25 26 C24.29187186 28.32108669 23.61975848 30.65377147 23 33 C22.34 33 21.68 33 21 33 C21.04640625 33.72832031 21.0928125 34.45664063 21.140625 35.20703125 C20.9831743 38.33417708 20.24629987 39.96080898 18.75 42.6875 C16.12228607 47.66593238 14.00210143 52.74308564 12 58 C9.36 58 6.72 58 4 58 C3.67 58.66 3.34 59.32 3 60 C2.01 59.34 1.02 58.68 0 58 C0.5705109 54.00642372 1.92869551 51.42215525 4 48 C4 47.01 4 46.02 4 45 C4.66 45.33 5.32 45.66 6 46 C5.34 44.35 4.68 42.7 4 41 C4.99 40.505 4.99 40.505 6 40 C4.8512486 35.02207729 3.70067339 32.46192027 0 29 C-1.19353531 25.97025652 -1.06544301 25.19632902 0 22 C-0.99 21.67 -1.98 21.34 -3 21 C-3.87890625 19.29296875 -3.87890625 19.29296875 -4.5625 17.1875 C-5.31810449 14.96024698 -6.02269467 12.95713228 -7.125 10.875 C-8.31707562 8.32055224 -8.62122537 5.77768066 -9 3 C-7.56879256 2.44191911 -6.12969645 1.90403538 -4.6875 1.375 C-3.88699219 1.07335937 -3.08648437 0.77171875 -2.26171875 0.4609375 C-1.51535156 0.30882813 -0.76898438 0.15671875 0 0 Z M-7 6 C-6 9 -6 9 -6 9 Z M5 8 C6 10 6 10 6 10 Z M6 10 C7 12 7 12 7 12 Z M17 15 C18 17 18 17 18 17 Z M16 17 C17 19 17 19 17 19 Z M9 18 C10 20 10 20 10 20 Z M-2 19 C-1 21 -1 21 -1 21 Z M1 26 C2 28 2 28 2 28 Z " fill="#0A0A0A" transform="translate(125,91)"/>
<path d="M0 0 C8.55984462 0.75528041 8.55984462 0.75528041 11.0234375 2.125 C12.98262768 3.22381821 12.98262768 3.22381821 15.1484375 2.5390625 C15.88320313 2.23742187 16.61796875 1.93578125 17.375 1.625 C21.08495339 0.25207317 23.9960115 -0.4766653 28 0 C32.34694318 2.89796212 34.84604916 6.23947473 37 11 C37.67248398 15.47268606 37.52790037 19.80429694 37.3125 24.3125 C37.24231398 26.62098193 37.17575049 28.92957761 37.11328125 31.23828125 C37.06985596 32.24930908 37.02643066 33.26033691 36.98168945 34.30200195 C36.99829667 36.74901936 37.28104631 38.67490999 38 41 C36.39773045 41.22245393 34.79303233 41.42746669 33.1875 41.625 C32.29417969 41.74101562 31.40085937 41.85703125 30.48046875 41.9765625 C28 42 28 42 25 40 C24.3125 37.875 24.3125 37.875 24 36 C24.66 36 25.32 36 26 36 C25.67 28.74 25.34 21.48 25 14 C24.34 14 23.68 14 23 14 C23 13.34 23 12.68 23 12 C18.38492226 10.95785309 18.38492226 10.95785309 14 12 C11.52208465 15.71687302 10.87389811 18.20025235 10.90234375 22.5625 C10.90556641 23.44164063 10.90878906 24.32078125 10.91210938 25.2265625 C10.92048828 26.14179687 10.92886719 27.05703125 10.9375 28 C10.94201172 28.91523437 10.94652344 29.83046875 10.95117188 30.7734375 C10.95989227 32.47266939 10.97066408 34.17189285 10.98413086 35.87109375 C10.99687441 37.58068985 11 39.2903564 11 41 C8.24921116 41.91692961 6.64051087 42.10886083 3.8125 42.0625 C2.554375 42.041875 1.29625 42.02125 0 42 C-1.31626692 38.38026598 -2 35.90432869 -2 32 C-1.34 32 -0.68 32 0 32 C-0.33 29.69 -0.66 27.38 -1 25 C-1.66 25.66 -2.32 26.32 -3 27 C-2.67 22.38 -2.34 17.76 -2 13 C-1.34 13 -0.68 13 0 13 C0 8.71 0 4.42 0 0 Z M-1 33 C0 35 0 35 0 35 Z " fill="#070707" transform="translate(256,92)"/>
<path d="M0 0 C2.65299978 2.72879977 2.93271793 4.51319631 3.1875 8.25 C2.5275 8.25 1.8675 8.25 1.1875 8.25 C1.496875 9.673125 1.496875 9.673125 1.8125 11.125 C1.93625 12.15625 2.06 13.1875 2.1875 14.25 C1.5275 14.91 0.8675 15.57 0.1875 16.25 C-0.41084554 17.77056618 -0.94756656 19.31612088 -1.4375 20.875 C-1.69789063 21.69226563 -1.95828125 22.50953125 -2.2265625 23.3515625 C-2.41992188 23.97804688 -2.61328125 24.60453125 -2.8125 25.25 C-3.4725 25.25 -4.1325 25.25 -4.8125 25.25 C-4.8125 26.57 -4.8125 27.89 -4.8125 29.25 C-5.4725 29.25 -6.1325 29.25 -6.8125 29.25 C-6.998125 30.11625 -6.998125 30.11625 -7.1875 31 C-8.13788932 34.42140155 -9.29405568 36.73155568 -11.8125 39.25 C-11.8125 40.24 -11.8125 41.23 -11.8125 42.25 C-13.2975 41.755 -13.2975 41.755 -14.8125 41.25 C-14.93625 42.03375 -15.06 42.8175 -15.1875 43.625 C-16.19574619 47.85963399 -19.49905224 49.63412019 -22.8125 52.25 C-23.8025 51.755 -23.8025 51.755 -24.8125 51.25 C-23.39957905 46.4225201 -21.38275846 42.5337641 -18.8125 38.25 C-18.1525 38.25 -17.4925 38.25 -16.8125 38.25 C-16.4825 36.27 -16.1525 34.29 -15.8125 32.25 C-14.8225 32.58 -13.8325 32.91 -12.8125 33.25 C-12.63074219 32.29287109 -12.63074219 32.29287109 -12.4453125 31.31640625 C-12.27773437 30.49011719 -12.11015625 29.66382813 -11.9375 28.8125 C-11.77507812 27.98878906 -11.61265625 27.16507813 -11.4453125 26.31640625 C-11.13207031 25.29353516 -11.13207031 25.29353516 -10.8125 24.25 C-9.8225 23.755 -9.8225 23.755 -8.8125 23.25 C-8.34726937 21.35466658 -8.34726937 21.35466658 -8.1875 19.1875 C-8.001875 17.2384375 -8.001875 17.2384375 -7.8125 15.25 C-7.1525 15.25 -6.4925 15.25 -5.8125 15.25 C-5.8125 12.94 -5.8125 10.63 -5.8125 8.25 C-7.1325 7.59 -8.4525 6.93 -9.8125 6.25 C-9.8125 5.59 -9.8125 4.93 -9.8125 4.25 C-11.70943861 4.53438952 -13.60502027 4.82783792 -15.5 5.125 C-16.55574219 5.28742187 -17.61148438 5.44984375 -18.69921875 5.6171875 C-21.62333509 6.21154992 -24.08307652 7.06895475 -26.8125 8.25 C-27.8025 8.58 -28.7925 8.91 -29.8125 9.25 C-31.32853704 9.98879341 -32.82753167 10.76309205 -34.3125 11.5625 C-35.0859375 11.97113281 -35.859375 12.37976563 -36.65625 12.80078125 C-38.91964827 14.14891751 -38.91964827 14.14891751 -40.39453125 16.37109375 C-41.8125 18.25 -41.8125 18.25 -45 19 C-46.3921875 19.12375 -46.3921875 19.12375 -47.8125 19.25 C-48.1425 20.24 -48.4725 21.23 -48.8125 22.25 C-49.4725 22.25 -50.1325 22.25 -50.8125 22.25 C-51.4725 22.91 -52.1325 23.57 -52.8125 24.25 C-53.864375 24.9925 -53.864375 24.9925 -54.9375 25.75 C-55.55625 26.245 -56.175 26.74 -56.8125 27.25 C-56.8125 27.91 -56.8125 28.57 -56.8125 29.25 C-57.988125 29.683125 -57.988125 29.683125 -59.1875 30.125 C-61.90921632 31.09912254 -61.90921632 31.09912254 -63.8125 33.25 C-63.4825 33.91 -63.1525 34.57 -62.8125 35.25 C-64.7925 35.745 -64.7925 35.745 -66.8125 36.25 C-65.8225 36.91 -64.8325 37.57 -63.8125 38.25 C-63.8125 38.91 -63.8125 39.57 -63.8125 40.25 C-63.4825 41.24 -63.1525 42.23 -62.8125 43.25 C-64.50413334 45.88142964 -65.94573126 47.75883105 -68.6875 49.3125 C-72.09522352 49.21227284 -74.15875215 47.24031089 -76.8125 45.25 C-77.8025 45.745 -77.8025 45.745 -78.8125 46.25 C-78.8125 44.27 -78.8125 42.29 -78.8125 40.25 C-78.214375 40.188125 -77.61625 40.12625 -77 40.0625 C-73.88983153 38.90729457 -73.20832292 37.18122813 -71.8125 34.25 C-71.8125 33.26 -71.8125 32.27 -71.8125 31.25 C-71.1525 31.25 -70.4925 31.25 -69.8125 31.25 C-69.4825 30.59 -69.1525 29.93 -68.8125 29.25 C-67.8125 27.25 -67.8125 27.25 -64.8125 26.25 C-63.47422696 24.58729713 -62.14060215 22.92083819 -60.8125 21.25 C-60.1525 21.25 -59.4925 21.25 -58.8125 21.25 C-58.1525 20.59 -57.4925 19.93 -56.8125 19.25 C-56.173125 18.940625 -55.53375 18.63125 -54.875 18.3125 C-52.71783337 17.20123234 -51.4419145 16.02754309 -49.8125 14.25 C-47.8125 12.25 -47.8125 12.25 -45.8125 11.25 C-45.4825 10.59 -45.1525 9.93 -44.8125 9.25 C-42.25 8.625 -42.25 8.625 -39.8125 8.25 C-39.8125 7.59 -39.8125 6.93 -39.8125 6.25 C-39.25175781 6.13527344 -38.69101563 6.02054688 -38.11328125 5.90234375 C-35.51932327 5.16687519 -33.38048768 4.07584543 -31 2.8125 C-26.97770522 0.76905681 -23.22841767 -0.72487625 -18.8125 -1.75 C-18.00683594 -1.95753906 -17.20117188 -2.16507813 -16.37109375 -2.37890625 C-9.6801248 -3.96439666 -5.95419309 -3.70483125 0 0 Z " fill="#0B0B0B" transform="translate(265.8125,40.75)"/>
<path d="M0 0 C1.81242052 -0.02687279 3.62495233 -0.04633715 5.4375 -0.0625 C6.44683594 -0.07410156 7.45617187 -0.08570312 8.49609375 -0.09765625 C11 0 11 0 12 1 C12.12185143 2.34983748 12.17766831 3.70574701 12.20532227 5.06079102 C12.22526749 5.92160782 12.24521271 6.78242462 12.26576233 7.66932678 C12.28247482 8.60473801 12.29918732 9.54014923 12.31640625 10.50390625 C12.33718735 11.45692123 12.35796844 12.40993622 12.37937927 13.39183044 C12.44498177 16.4486441 12.50380918 19.50554656 12.5625 22.5625 C12.60567506 24.62956663 12.64928901 26.69662414 12.69335938 28.76367188 C12.80150336 33.84235808 12.9004969 38.92110761 13 44 C19.6 44.33 26.2 44.66 33 45 C33.495 44.01 33.495 44.01 34 43 C36.48887372 47.68493876 35.85687773 50.9444214 35 56 C34.67 55.34 34.34 54.68 34 54 C33.04633545 54.01047363 32.0926709 54.02094727 31.11010742 54.03173828 C27.57108312 54.06794501 24.0320752 54.09090284 20.49291992 54.10986328 C18.96131639 54.11991935 17.42973205 54.133566 15.89819336 54.15087891 C13.69640364 54.17514498 11.49486781 54.18648688 9.29296875 54.1953125 C8.60849167 54.20563507 7.92401459 54.21595764 7.21879578 54.22659302 C3.56938339 54.22745382 2.12851498 54.08567666 -1 52 C-1.32279968 49.78536987 -1.32279968 49.78536987 -1.2487793 46.99951172 C-1.22853195 45.95858368 -1.20828461 44.91765564 -1.18742371 43.84518433 C-1.15006607 42.71807037 -1.11270844 41.59095642 -1.07421875 40.4296875 C-1.04777786 39.27832306 -1.02133698 38.12695862 -0.99409485 36.94070435 C-0.90609877 33.25162248 -0.79702854 29.56349941 -0.6875 25.875 C-0.62426564 23.37894096 -0.56239881 20.88284688 -0.50195312 18.38671875 C-0.35052036 12.25731712 -0.18176718 6.12857296 0 0 Z M1 1 C1 17.5 1 34 1 51 C1.33 51 1.66 51 2 51 C2 34.5 2 18 2 1 C1.67 1 1.34 1 1 1 Z " fill="#060606" transform="translate(85,79)"/>
<path d="M0 0 C3.96 0 7.92 0 12 0 C13 1 13 1 13.0625 4 C13.041875 4.99 13.02125 5.98 13 7 C13 8.70196948 13.04603519 10.40337488 13.0793457 12.10498047 C13.16952714 16.97297716 13.22715054 21.84088712 13.2746582 26.70947266 C13.29984478 28.81637019 13.33399572 30.92318001 13.37719727 33.02978516 C13.43774633 36.05913816 13.46618314 39.08734061 13.48828125 42.1171875 C13.51408768 43.06101288 13.5398941 44.00483826 13.56648254 44.9772644 C13.56924958 51.40631587 13.56924958 51.40631587 10.96948242 54.11767578 C8 55 8 55 0 55 C0 36.85 0 18.7 0 0 Z M11 1 C12 5 12 5 12 5 Z M11 9 C11 22.2 11 35.4 11 49 C11.33 49 11.66 49 12 49 C12 35.8 12 22.6 12 9 C11.67 9 11.34 9 11 9 Z " fill="#020202" transform="translate(355,79)"/>
<path d="M0 0 C1.40742811 2.81485621 0.95208252 4.00774065 0 7 C-1.55591822 9.10631106 -3.27914763 11.02101977 -5 13 C-5.33 13.99 -5.66 14.98 -6 16 C-7.9375 16.5625 -7.9375 16.5625 -10 17 C-11.31266533 18.31266533 -12.60533913 19.64569507 -13.875 21 C-15.89424842 22.9004691 -17.53921115 23.80929572 -20 25 C-20.53625 25.53625 -21.0725 26.0725 -21.625 26.625 C-22.07875 27.07875 -22.5325 27.5325 -23 28 C-23.66 28 -24.32 28 -25 28 C-25.33 28.66 -25.66 29.32 -26 30 C-26.9590625 30.4640625 -26.9590625 30.4640625 -27.9375 30.9375 C-30.31971493 31.95345922 -30.31971493 31.95345922 -32 35 C-32.66 35 -33.32 35 -34 35 C-36.28401142 36.19491717 -38.48808318 37.50387491 -40.7109375 38.80859375 C-42.85829597 39.9262462 -44.64775321 40.5027771 -47 41 C-48.11375 41.350625 -49.2275 41.70125 -50.375 42.0625 C-54.99679759 43.25779248 -58.22897949 43.74135742 -62.6875 41.875 C-65.74579624 39.39530035 -66.82871733 37.78944394 -68 34 C-67.65163686 30.57272148 -66.91157364 27.31839036 -66 24 C-66.66 24 -67.32 24 -68 24 C-68 23.34 -68 22.68 -68 22 C-67.34 22 -66.68 22 -66 22 C-65.731875 21.030625 -65.46375 20.06125 -65.1875 19.0625 C-64.795625 18.051875 -64.40375 17.04125 -64 16 C-63.01 15.67 -62.02 15.34 -61 15 C-61.33 13.68 -61.66 12.36 -62 11 C-61.01 10.67 -60.02 10.34 -59 10 C-58.67 9.01 -58.34 8.02 -58 7 C-57.01 7.33 -56.02 7.66 -55 8 C-55.3609375 8.88300781 -55.721875 9.76601562 -56.09375 10.67578125 C-59.07003759 18.37279165 -60.76952543 24.62072305 -60 33 C-56.46189369 33.84331208 -53.49067743 34.05791344 -49.875 33.6875 C-49.02679688 33.60886719 -48.17859375 33.53023437 -47.3046875 33.44921875 C-44.73579188 33.10211219 -44.73579188 33.10211219 -42 31 C-39.93883839 29.86968557 -38.16775567 29.03947192 -35.875 28.5 C-33.77320517 28.10722935 -33.77320517 28.10722935 -32 26 C-31.01 26 -30.02 26 -29 26 C-29 25.01 -29 24.02 -29 23 C-26.36 21.68 -23.72 20.36 -21 19 C-21 18.34 -21 17.68 -21 17 C-20.4225 16.7525 -19.845 16.505 -19.25 16.25 C-16.86550111 15.06009525 -16.86550111 15.06009525 -14.875 12.875 C-14.25625 12.25625 -13.6375 11.6375 -13 11 C-12.34 11 -11.68 11 -11 11 C-10.731875 10.38125 -10.46375 9.7625 -10.1875 9.125 C-8.65592603 6.38428869 -6.7540334 5.34274246 -3.9375 4.0625 C-1.67738896 3.01748702 -1.67738896 3.01748702 0 0 Z M-65 20 C-64 22 -64 22 -64 22 Z " fill="#0A0A0A" transform="translate(211,127)"/>
<path d="M0 0 C2 2 2 2 2.1953125 4.3828125 C2.17210937 5.28773437 2.14890625 6.19265625 2.125 7.125 C2.10695312 8.03507812 2.08890625 8.94515625 2.0703125 9.8828125 C2.04710937 10.58148438 2.02390625 11.28015625 2 12 C1.278125 12.061875 0.55625 12.12375 -0.1875 12.1875 C-3.83850322 13.24223426 -5.42090955 15.28149926 -8 18 C-8.66 18 -9.32 18 -10 18 C-10 24.6 -10 31.2 -10 38 C-9.34 38.33 -8.68 38.66 -8 39 C-9.41519715 41.0343459 -10.54982123 41.90410393 -12.98046875 42.421875 C-14.98176954 42.66273952 -16.9909944 42.83532741 -19 43 C-19 42.34 -19 41.68 -19 41 C-19.66 40.67 -20.32 40.34 -21 40 C-20.67 39.34 -20.34 38.68 -20 38 C-20.66 38 -21.32 38 -22 38 C-21.67 37.34 -21.34 36.68 -21 36 C-20.84373424 33.52167341 -20.74186802 31.06688669 -20.68359375 28.5859375 C-20.66281265 27.85629791 -20.64203156 27.12665833 -20.62062073 26.37490845 C-20.55518083 24.04170237 -20.49626632 21.70838279 -20.4375 19.375 C-20.39430947 17.79425905 -20.35069501 16.21352961 -20.30664062 14.6328125 C-20.19950519 10.75532496 -20.09822218 6.87772315 -20 3 C-15.49075254 1.06964534 -11.77021308 0.16054149 -6.9375 1.625 C-4.18985816 2.15680165 -2.4756217 1.16904358 0 0 Z M-10 15 C-9.67 15.66 -9.34 16.32 -9 17 C-8.67 16.34 -8.34 15.68 -8 15 C-8.66 15 -9.32 15 -10 15 Z " fill="#070707" transform="translate(182,91)"/>
<path d="M0 0 C1.44824657 2.89649315 1.12985014 5.4271664 1.1328125 8.66015625 C1.13376923 9.32405869 1.13472595 9.98796112 1.13571167 10.67198181 C1.13639295 12.08169652 1.1345423 13.49141435 1.13037109 14.90112305 C1.12508111 17.02985978 1.1302868 19.15837975 1.13671875 21.28710938 C1.13979302 28.26231288 0.97118233 35.08610676 0 42 C0.66 42.33 1.32 42.66 2 43 C1.25 47.75 1.25 47.75 -1 50 C-1.99 49.34 -2.98 48.68 -4 48 C-4 47.34 -4 46.68 -4 46 C-5.32 46.66 -6.64 47.32 -8 48 C-8 47.34 -8 46.68 -8 46 C-8.99 45.67 -9.98 45.34 -11 45 C-10.67 32.79 -10.34 20.58 -10 8 C-10.66 8 -11.32 8 -12 8 C-10.70525365 5.41050731 -9.67336607 5.03964236 -7 4 C-4.25 3.875 -4.25 3.875 -2 4 C-1.34 2.68 -0.68 1.36 0 0 Z " fill="#090909" transform="translate(201,87)"/>
<path d="M0 0 C0.99 0.33 1.98 0.66 3 1 C2.45859375 2.32451172 2.45859375 2.32451172 1.90625 3.67578125 C-0.99246668 11.17218465 -3.05597108 17.85393736 -2 26 C-1.67 26.66 -1.34 27.32 -1 28 C-1.33 28.99 -1.66 29.98 -2 31 C-2 31.99 -2 32.98 -2 34 C-4.3125 33.875 -4.3125 33.875 -7 33 C-9.31636125 30.0858681 -10.11261334 28.11122869 -9.734375 24.37890625 C-9.23988532 21.88879749 -8.67236576 19.44760487 -8 17 C-8.66 17 -9.32 17 -10 17 C-10 16.34 -10 15.68 -10 15 C-9.34 15 -8.68 15 -8 15 C-7.731875 14.030625 -7.46375 13.06125 -7.1875 12.0625 C-6.795625 11.051875 -6.40375 10.04125 -6 9 C-5.01 8.67 -4.02 8.34 -3 8 C-3.33 6.68 -3.66 5.36 -4 4 C-3.01 3.67 -2.02 3.34 -1 3 C-0.67 2.01 -0.34 1.02 0 0 Z M-7 13 C-6 15 -6 15 -6 15 Z " fill="#0F0F0F" transform="translate(153,134)"/>
<path d="M0 0 C0.33 0 0.66 0 1 0 C1 10.56 1 21.12 1 32 C0.67 32 0.34 32 0 32 C0 21.44 0 10.88 0 0 Z " fill="#0F0F0F" transform="translate(189,96)"/>
<path d="M0 0 C0.33 0 0.66 0 1 0 C1 7.59 1 15.18 1 23 C0.67 23 0.34 23 0 23 C0 15.41 0 7.82 0 0 Z " fill="#3D3D3D" transform="translate(293,105)"/>
<path d="M0 0 C0.99 0.33 1.98 0.66 3 1 C2.34 2.65 1.68 4.3 1 6 C-0.65 6 -2.3 6 -4 6 C-3.67 5.01 -3.34 4.02 -3 3 C-2.34 3 -1.68 3 -1 3 C-0.67 2.01 -0.34 1.02 0 0 Z " fill="#232323" transform="translate(153,134)"/>
<path d="M0 0 C0.99 0.33 1.98 0.66 3 1 C2.34 2.65 1.68 4.3 1 6 C0.01 6 -0.98 6 -2 6 C-1.34 4.02 -0.68 2.04 0 0 Z " fill="#020202" transform="translate(243,86)"/>
<path d="M0 0 C0.33 0 0.66 0 1 0 C1 3.63 1 7.26 1 11 C0.67 11 0.34 11 0 11 C0 7.37 0 3.74 0 0 Z " fill="#171717" transform="translate(160,110)"/>
<path d="M0 0 C0.66 0 1.32 0 2 0 C2 2.31 2 4.62 2 7 C0 4 0 4 0 0 Z " fill="#131313" transform="translate(159,95)"/>
<path d="M0 0 C-3 1 -3 1 -6 0 C-3.50907189 -1.24546405 -2.58919267 -0.7767578 0 0 Z " fill="#5F5F5F" transform="translate(122,92)"/>
<path d="M0 0 C0.33 0.99 0.66 1.98 1 3 C0.67 3.66 0.34 4.32 0 5 C-0.66 4.67 -1.32 4.34 -2 4 C-1.34 2.68 -0.68 1.36 0 0 Z " fill="#555555" transform="translate(321,99)"/>
<path d="M0 0 C0.33 0.99 0.66 1.98 1 3 C0.01 3 -0.98 3 -2 3 C-2 2.34 -2 1.68 -2 1 C-1.34 0.67 -0.68 0.34 0 0 Z " fill="#343434" transform="translate(192,89)"/>
<path d="M0 0 C0.66 0 1.32 0 2 0 C2 1.65 2 3.3 2 5 C0 2 0 2 0 0 Z " fill="#3E3E3E" transform="translate(258,49)"/>
<path d="M0 0 C0.33 0 0.66 0 1 0 C1 1.98 1 3.96 1 6 C0.67 6 0.34 6 0 6 C0 4.02 0 2.04 0 0 Z " fill="#000000" transform="translate(280,114)"/>
<path d="M0 0 C0.99 0.99 1.98 1.98 3 3 C2.01 2.67 1.02 2.34 0 2 C0 1.34 0 0.68 0 0 Z " fill="#0C0C0C" transform="translate(85,132)"/>
<path d="M0 0 C0 0.99 0 1.98 0 3 C-0.66 2.67 -1.32 2.34 -2 2 C-1.34 1.34 -0.68 0.68 0 0 Z " fill="#141414" transform="translate(243,129)"/>
<path d="M0 0 C0.66 0.99 1.32 1.98 2 3 C1.01 2.67 0.02 2.34 -1 2 C-0.67 1.34 -0.34 0.68 0 0 Z " fill="#373737" transform="translate(350,127)"/>
<path d="M0 0 C0.99 0.33 1.98 0.66 3 1 C2.01 1.33 1.02 1.66 0 2 C0 1.34 0 0.68 0 0 Z " fill="#666666" transform="translate(188,87)"/>
<path d="M0 0 C4 1 4 1 4 1 Z " fill="#3F3F3F" transform="translate(132,150)"/>
<path d="M0 0 C0.66 0.33 1.32 0.66 2 1 C1.01 1 0.02 1 -1 1 C-0.67 0.67 -0.34 0.34 0 0 Z " fill="#252525" transform="translate(366,132)"/>
<path d="M0 0 C0.99 0.33 1.98 0.66 3 1 C2.01 1 1.02 1 0 1 C0 0.67 0 0.34 0 0 Z " fill="#232323" transform="translate(202,131)"/>
<path d="M0 0 C1.485 0.99 1.485 0.99 3 2 C2.01 2 1.02 2 0 2 C0 1.34 0 0.68 0 0 Z " fill="#090909" transform="translate(214,130)"/>
<path d="M0 0 C0.99 0.495 0.99 0.495 2 1 C1.34 1.66 0.68 2.32 0 3 C0 2.01 0 1.02 0 0 Z " fill="#191919" transform="translate(212,129)"/>
<path d="M0 0 C0.66 0.66 1.32 1.32 2 2 C1.01 2.495 1.01 2.495 0 3 C0 2.01 0 1.02 0 0 Z " fill="#949494" transform="translate(137,113)"/>
<path d="M0 0 C1 4 1 4 1 4 Z " fill="#202020" transform="translate(202,105)"/>
<path d="M0 0 C0.66 0 1.32 0 2 0 C2 0.66 2 1.32 2 2 C1.34 2 0.68 2 0 2 C0 1.34 0 0.68 0 0 Z " fill="#101010" transform="translate(159,92)"/>
<path d="M0 0 C0 3 0 3 0 3 Z " fill="#151515" transform="translate(252,70)"/>
<path d="" fill="#000000" transform="translate(0,0)"/>
<path d="M0 0 C3 1 3 1 3 1 Z " fill="#1C1C1C" transform="translate(344,134)"/>
<path d="M0 0 C0.66 0.66 1.32 1.32 2 2 C1.34 2 0.68 2 0 2 C0 1.34 0 0.68 0 0 Z " fill="#717171" transform="translate(190,133)"/>
<path d="M0 0 C0.99 0.495 0.99 0.495 2 1 C1.01 1.495 1.01 1.495 0 2 C0 1.34 0 0.68 0 0 Z " fill="#000000" transform="translate(291,133)"/>
<path d="M0 0 C0.99 0.495 0.99 0.495 2 1 C1.01 1.495 1.01 1.495 0 2 C0 1.34 0 0.68 0 0 Z " fill="#2D2D2D" transform="translate(188,129)"/>
<path d="M0 0 C0.33 0.66 0.66 1.32 1 2 C0.34 1.67 -0.32 1.34 -1 1 C-0.67 0.67 -0.34 0.34 0 0 Z " fill="#151515" transform="translate(245,127)"/>
<path d="M0 0 C0.66 0.66 1.32 1.32 2 2 C1.34 2 0.68 2 0 2 C0 1.34 0 0.68 0 0 Z " fill="#585858" transform="translate(146,126)"/>
<path d="M0 0 C0.66 0 1.32 0 2 0 C1.67 0.66 1.34 1.32 1 2 C0.67 1.34 0.34 0.68 0 0 Z " fill="#0C0C0C" transform="translate(298,120)"/>
<path d="" fill="#111111" transform="translate(0,0)"/>
<path d="" fill="#868686" transform="translate(0,0)"/>
<path d="" fill="#1D1D1D" transform="translate(0,0)"/>
<path d="M0 0 C0.66 0.66 1.32 1.32 2 2 C1.34 2 0.68 2 0 2 C0 1.34 0 0.68 0 0 Z " fill="#AAAAAA" transform="translate(250,106)"/>
<path d="M0 0 C0.66 0.66 1.32 1.32 2 2 C1.34 2 0.68 2 0 2 C0 1.34 0 0.68 0 0 Z " fill="#8B8B8B" transform="translate(234,104)"/>
<path d="M0 0 C0.66 0.66 1.32 1.32 2 2 C1.34 2 0.68 2 0 2 C0 1.34 0 0.68 0 0 Z " fill="#1C1C1C" transform="translate(249,103)"/>
<path d="M0 0 C3 1 3 1 3 1 Z " fill="#1C1C1C" transform="translate(219,92)"/>
<path d="M0 0 C3 1 3 1 3 1 Z " fill="#404040" transform="translate(223,91)"/>
<path d="M0 0 C3 1 3 1 3 1 Z " fill="#212121" transform="translate(206,60)"/>
<path d="M0 0 C2 1 2 1 2 1 Z " fill="#7F7F7F" transform="translate(153,170)"/>
<path d="M0 0 C2 1 2 1 2 1 Z " fill="#7F7F7F" transform="translate(169,166)"/>
<path d="M0 0 C2 1 2 1 2 1 Z " fill="#191919" transform="translate(171,165)"/>
<path d="M0 0 C2 1 2 1 2 1 Z " fill="#000000" transform="translate(159,160)"/>
<path d="M0 0 C2 1 2 1 2 1 Z " fill="#FFFFFF" transform="translate(152,160)"/>
<path d="" fill="#202020" transform="translate(0,0)"/>
<path d="M0 0 C2 1 2 1 2 1 Z " fill="#7F7F7F" transform="translate(185,146)"/>
<path d="M0 0 C2 1 2 1 2 1 Z " fill="#000000" transform="translate(188,145)"/>
<path d="" fill="#202020" transform="translate(0,0)"/>
<path d="" fill="#2A2A2A" transform="translate(0,0)"/>
<path d="M0 0 C2 1 2 1 2 1 Z " fill="#131313" transform="translate(198,137)"/>
<path d="" fill="#000000" transform="translate(0,0)"/>
<path d="" fill="#7F7F7F" transform="translate(0,0)"/>
<path d="M0 0 C2 1 2 1 2 1 Z " fill="#0E0E0E" transform="translate(305,134)"/>
<path d="M0 0 C2 1 2 1 2 1 Z " fill="#2A2A2A" transform="translate(286,134)"/>
<path d="M0 0 C2 1 2 1 2 1 Z " fill="#191919" transform="translate(259,134)"/>
<path d="" fill="#2A2A2A" transform="translate(0,0)"/>
<path d="" fill="#2A2A2A" transform="translate(0,0)"/>
<path d="" fill="#0B0B0B" transform="translate(0,0)"/>
<path d="" fill="#2A2A2A" transform="translate(0,0)"/>
<path d="" fill="#AAAAAA" transform="translate(0,0)"/>
<path d="M0 0 C2 1 2 1 2 1 Z " fill="#404040" transform="translate(114,122)"/>
<path d="" fill="#404040" transform="translate(0,0)"/>
<path d="" fill="#000000" transform="translate(0,0)"/>
<path d="" fill="#202020" transform="translate(0,0)"/>
<path d="" fill="#BFBFBF" transform="translate(0,0)"/>
<path d="" fill="#202020" transform="translate(0,0)"/>
<path d="" fill="#404040" transform="translate(0,0)"/>
<path d="" fill="#000000" transform="translate(0,0)"/>
<path d="" fill="#000000" transform="translate(0,0)"/>
<path d="" fill="#191919" transform="translate(0,0)"/>
<path d="M0 0 C2 1 2 1 2 1 Z " fill="#2A2A2A" transform="translate(273,103)"/>
<path d="" fill="#2A2A2A" transform="translate(0,0)"/>
<path d="" fill="#0E0E0E" transform="translate(0,0)"/>
<path d="M0 0 C2 1 2 1 2 1 Z " fill="#000000" transform="translate(245,98)"/>
<path d="" fill="#131313" transform="translate(0,0)"/>
<path d="M0 0 C2 1 2 1 2 1 Z " fill="#000000" transform="translate(217,93)"/>
<path d="M0 0 C2 1 2 1 2 1 Z " fill="#080808" transform="translate(270,92)"/>
<path d="" fill="#7F7F7F" transform="translate(0,0)"/>
<path d="M0 0 C2 1 2 1 2 1 Z " fill="#7F7F7F" transform="translate(284,91)"/>
<path d="M0 0 C2 1 2 1 2 1 Z " fill="#000000" transform="translate(275,91)"/>
<path d="" fill="#2A2A2A" transform="translate(0,0)"/>
<path d="M0 0 C2 1 2 1 2 1 Z " fill="#404040" transform="translate(232,91)"/>
<path d="" fill="#202020" transform="translate(0,0)"/>
<path d="" fill="#7F7F7F" transform="translate(0,0)"/>
<path d="" fill="#2A2A2A" transform="translate(0,0)"/>
<path d="" fill="#101010" transform="translate(0,0)"/>
<path d="" fill="#000000" transform="translate(0,0)"/>
<path d="" fill="#999999" transform="translate(0,0)"/>
<path d="" fill="#000000" transform="translate(0,0)"/>
<path d="M0 0 C2 1 2 1 2 1 Z " fill="#121212" transform="translate(216,53)"/>
<path d="M0 0 C2 1 2 1 2 1 Z " fill="#2A2A2A" transform="translate(235,42)"/>
<path d="" fill="#000000" transform="translate(0,0)"/>
<path d="" fill="#0E0E0E" transform="translate(0,0)"/>
<path d="" fill="#000000" transform="translate(0,0)"/>
<path d="" fill="#000000" transform="translate(0,0)"/>
<path d="" fill="#000000" transform="translate(0,0)"/>
<path d="" fill="#000000" transform="translate(0,0)"/>
<path d="" fill="#000000" transform="translate(0,0)"/>
<path d="" fill="#000000" transform="translate(0,0)"/>
<path d="" fill="#555555" transform="translate(0,0)"/>
<path d="" fill="#000000" transform="translate(0,0)"/>
<path d="" fill="#000000" transform="translate(0,0)"/>
<path d="" fill="#000000" transform="translate(0,0)"/>
<path d="" fill="#555555" transform="translate(0,0)"/>
<path d="" fill="#555555" transform="translate(0,0)"/>
<path d="" fill="#FFFFFF" transform="translate(0,0)"/>
<path d="" fill="#000000" transform="translate(0,0)"/>
<path d="" fill="#000000" transform="translate(0,0)"/>
<path d="" fill="#000000" transform="translate(0,0)"/>
<path d="" fill="#000000" transform="translate(0,0)"/>
<path d="" fill="#1C1C1C" transform="translate(0,0)"/>
<path d="" fill="#000000" transform="translate(0,0)"/>
<path d="" fill="#000000" transform="translate(0,0)"/>
<path d="" fill="#000000" transform="translate(0,0)"/>
<path d="" fill="#404040" transform="translate(0,0)"/>
<path d="" fill="#0E0E0E" transform="translate(0,0)"/>
<path d="" fill="#000000" transform="translate(0,0)"/>
<path d="" fill="#000000" transform="translate(0,0)"/>
<path d="" fill="#000000" transform="translate(0,0)"/>
<path d="" fill="#000000" transform="translate(0,0)"/>
<path d="" fill="#404040" transform="translate(0,0)"/>
<path d="" fill="#333333" transform="translate(0,0)"/>
<path d="" fill="#242424" transform="translate(0,0)"/>
<path d="" fill="#000000" transform="translate(0,0)"/>
<path d="" fill="#121212" transform="translate(0,0)"/>
<path d="" fill="#121212" transform="translate(0,0)"/>
<path d="" fill="#FFFFFF" transform="translate(0,0)"/>
<path d="" fill="#555555" transform="translate(0,0)"/>
<path d="" fill="#000000" transform="translate(0,0)"/>
<path d="" fill="#000000" transform="translate(0,0)"/>
<path d="" fill="#242424" transform="translate(0,0)"/>
<path d="" fill="#000000" transform="translate(0,0)"/>
<path d="" fill="#171717" transform="translate(0,0)"/>
<path d="" fill="#000000" transform="translate(0,0)"/>
<path d="" fill="#1A1A1A" transform="translate(0,0)"/>
<path d="" fill="#808080" transform="translate(0,0)"/>
<path d="" fill="#808080" transform="translate(0,0)"/>
<path d="" fill="#555555" transform="translate(0,0)"/>
<path d="" fill="#000000" transform="translate(0,0)"/>
<path d="" fill="#000000" transform="translate(0,0)"/>
<path d="" fill="#000000" transform="translate(0,0)"/>
<path d="" fill="#000000" transform="translate(0,0)"/>
<path d="" fill="#FFFFFF" transform="translate(0,0)"/>
<path d="" fill="#333333" transform="translate(0,0)"/>
<path d="" fill="#000000" transform="translate(0,0)"/>
<path d="" fill="#000000" transform="translate(0,0)"/>
<path d="" fill="#808080" transform="translate(0,0)"/>
<path d="" fill="#333333" transform="translate(0,0)"/>
<path d="" fill="#000000" transform="translate(0,0)"/>
<path d="" fill="#404040" transform="translate(0,0)"/>
<path d="" fill="#000000" transform="translate(0,0)"/>
<path d="" fill="#404040" transform="translate(0,0)"/>
<path d="" fill="#808080" transform="translate(0,0)"/>
<path d="" fill="#000000" transform="translate(0,0)"/>
<path d="" fill="#000000" transform="translate(0,0)"/>
<path d="" fill="#000000" transform="translate(0,0)"/>
<path d="" fill="#000000" transform="translate(0,0)"/>
<path d="" fill="#000000" transform="translate(0,0)"/>
<path d="" fill="#FFFFFF" transform="translate(0,0)"/>
<path d="" fill="#333333" transform="translate(0,0)"/>
<path d="" fill="#000000" transform="translate(0,0)"/>
<path d="" fill="#151515" transform="translate(0,0)"/>
<path d="" fill="#000000" transform="translate(0,0)"/>
<path d="" fill="#000000" transform="translate(0,0)"/>
<path d="" fill="#FFFFFF" transform="translate(0,0)"/>
<path d="" fill="#151515" transform="translate(0,0)"/>
<path d="" fill="#000000" transform="translate(0,0)"/>
<path d="" fill="#000000" transform="translate(0,0)"/>
<path d="" fill="#000000" transform="translate(0,0)"/>
<path d="" fill="#FFFFFF" transform="translate(0,0)"/>
<path d="" fill="#555555" transform="translate(0,0)"/>
<path d="" fill="#000000" transform="translate(0,0)"/>
<path d="" fill="#000000" transform="translate(0,0)"/>
<path d="" fill="#000000" transform="translate(0,0)"/>
<path d="" fill="#000000" transform="translate(0,0)"/>
<path d="" fill="#404040" transform="translate(0,0)"/>
<path d="" fill="#121212" transform="translate(0,0)"/>
<path d="" fill="#000000" transform="translate(0,0)"/>
<path d="" fill="#000000" transform="translate(0,0)"/>
<path d="" fill="#FFFFFF" transform="translate(0,0)"/>
<path d="" fill="#000000" transform="translate(0,0)"/>
<path d="" fill="#000000" transform="translate(0,0)"/>
<path d="" fill="#000000" transform="translate(0,0)"/>
<path d="" fill="#000000" transform="translate(0,0)"/>
<path d="" fill="#FFFFFF" transform="translate(0,0)"/>
<path d="" fill="#FFFFFF" transform="translate(0,0)"/>
<path d="" fill="#FFFFFF" transform="translate(0,0)"/>
<path d="" fill="#000000" transform="translate(0,0)"/>
<path d="" fill="#404040" transform="translate(0,0)"/>
<path d="" fill="#000000" transform="translate(0,0)"/>
<path d="" fill="#000000" transform="translate(0,0)"/>
<path d="" fill="#0E0E0E" transform="translate(0,0)"/>
<path d="" fill="#555555" transform="translate(0,0)"/>
<path d="" fill="#000000" transform="translate(0,0)"/>
<path d="" fill="#000000" transform="translate(0,0)"/>
<path d="" fill="#1C1C1C" transform="translate(0,0)"/>
<path d="" fill="#404040" transform="translate(0,0)"/>
<path d="" fill="#000000" transform="translate(0,0)"/>
<path d="" fill="#FFFFFF" transform="translate(0,0)"/>
<path d="" fill="#000000" transform="translate(0,0)"/>
<path d="" fill="#171717" transform="translate(0,0)"/>
<path d="" fill="#404040" transform="translate(0,0)"/>
<path d="" fill="#000000" transform="translate(0,0)"/>
<path d="" fill="#000000" transform="translate(0,0)"/>
<path d="" fill="#000000" transform="translate(0,0)"/>
<path d="" fill="#FFFFFF" transform="translate(0,0)"/>
<path d="" fill="#FFFFFF" transform="translate(0,0)"/>
<path d="" fill="#808080" transform="translate(0,0)"/>
<path d="" fill="#000000" transform="translate(0,0)"/>
<path d="" fill="#000000" transform="translate(0,0)"/>
<path d="" fill="#000000" transform="translate(0,0)"/>
<path d="" fill="#555555" transform="translate(0,0)"/>
<path d="" fill="#000000" transform="translate(0,0)"/>
<path d="" fill="#000000" transform="translate(0,0)"/>
<path d="" fill="#808080" transform="translate(0,0)"/>
<path d="" fill="#000000" transform="translate(0,0)"/>
<path d="" fill="#000000" transform="translate(0,0)"/>
<path d="" fill="#000000" transform="translate(0,0)"/>
<path d="" fill="#000000" transform="translate(0,0)"/>
<path d="" fill="#000000" transform="translate(0,0)"/>
<path d="" fill="#000000" transform="translate(0,0)"/>
<path d="" fill="#000000" transform="translate(0,0)"/>
<path d="" fill="#000000" transform="translate(0,0)"/>
<path d="" fill="#FFFFFF" transform="translate(0,0)"/>
<path d="" fill="#000000" transform="translate(0,0)"/>
<path d="" fill="#111111" transform="translate(0,0)"/>
<path d="" fill="#000000" transform="translate(0,0)"/>
<path d="" fill="#000000" transform="translate(0,0)"/>
<path d="" fill="#000000" transform="translate(0,0)"/>
<path d="" fill="#000000" transform="translate(0,0)"/>
<path d="" fill="#000000" transform="translate(0,0)"/>
<path d="" fill="#000000" transform="translate(0,0)"/>
<path d="" fill="#242424" transform="translate(0,0)"/>
<path d="" fill="#555555" transform="translate(0,0)"/>
<path d="" fill="#555555" transform="translate(0,0)"/>
<path d="" fill="#000000" transform="translate(0,0)"/>
<path d="" fill="#000000" transform="translate(0,0)"/>
<path d="" fill="#555555" transform="translate(0,0)"/>
<path d="" fill="#000000" transform="translate(0,0)"/>
<path d="" fill="#000000" transform="translate(0,0)"/>
<path d="" fill="#808080" transform="translate(0,0)"/>
<path d="" fill="#000000" transform="translate(0,0)"/>
<path d="" fill="#000000" transform="translate(0,0)"/>
<path d="" fill="#FFFFFF" transform="translate(0,0)"/>
<path d="" fill="#555555" transform="translate(0,0)"/>
<path d="" fill="#FFFFFF" transform="translate(0,0)"/>
<path d="" fill="#000000" transform="translate(0,0)"/>
<path d="" fill="#000000" transform="translate(0,0)"/>
<path d="" fill="#000000" transform="translate(0,0)"/>
<path d="" fill="#000000" transform="translate(0,0)"/>
</svg>
